<svg xmlns="http://www.w3.org/2000/svg" width="426.193" height="947.696" viewBox="0 0 426.193 947.696"><defs><style>.a{fill:#25f4ee;}.b{fill:#fe2c55;}.c{fill:#fff;}.d,.e,.f,.g,.i{fill:none;}.d,.f{stroke:#fff;}.d,.e,.f,.g{stroke-miterlimit:10;}.d{stroke-width:9px;}.e,.g{stroke:#25f4ee;}.e,.f{stroke-width:13px;}.g{stroke-width:10px;}.h{stroke:none;}</style></defs><g transform="translate(-87.693)"><rect class="a" width="35.002" height="35.002" transform="translate(418.297 379.511)"/><rect class="a" width="35.002" height="35.002" transform="translate(390.069)"/><g transform="translate(241.646 213.444)"><rect class="a" width="62.238" height="14.923" transform="translate(44.924 53.866) rotate(-136.204)"/><rect class="b" width="62.238" height="14.923" transform="matrix(-0.721, 0.693, -0.693, -0.721, 55.233, 10.759)"/></g><rect class="c" width="27.229" height="27.229" transform="translate(203.445 920.467)"/><g class="d" transform="translate(159.442 559.301)"><rect class="h" width="50.747" height="50.747"/><rect class="i" x="4.5" y="4.5" width="41.747" height="41.747"/></g><path class="e" d="M2592.832-974.417l29.879-51.752,51.752,29.879" transform="translate(-2482.832 1381.677)"/><g transform="translate(364.203 590.092)"><path class="b" d="M2262.874-678.676l47.386-45.461-45.391-47.448-9.3,8.919,36.486,38.139-38.09,36.541Z" transform="translate(-2253.968 771.584)"/></g><g class="f" transform="translate(100.104 7.478)"><rect class="h" width="81.083" height="81.083"/><rect class="i" x="6.5" y="6.5" width="68.083" height="68.083"/></g><g class="g" transform="translate(368.356 820.796)"><rect class="h" width="55.886" height="55.886"/><rect class="i" x="5" y="5" width="45.886" height="45.886"/></g><rect class="a" width="35.002" height="35.002" transform="translate(87.693 764.559)"/><rect class="c" width="63.815" height="13.438" transform="translate(513.886 150.546) rotate(153.077)"/></g></svg>